<?xml version="1.0" encoding="UTF-8" standalone="no"?>
<svg
   height="210mm"
   version="1.2"
   viewBox="0 0 2970 2100"
   width="297mm"
   id="svg28"
   sodipodi:docname="instruction3_osmotr.svg"
   inkscape:version="1.4.3 (0d15f75, 2025-12-25)"
   xmlns:inkscape="http://www.inkscape.org/namespaces/inkscape"
   xmlns:sodipodi="http://sodipodi.sourceforge.net/DTD/sodipodi-0.dtd"
   xmlns="http://www.w3.org/2000/svg"
   xmlns:svg="http://www.w3.org/2000/svg"
   xmlns:rdf="http://www.w3.org/1999/02/22-rdf-syntax-ns#"
   xmlns:cc="http://creativecommons.org/ns#"
   xmlns:dc="http://purl.org/dc/elements/1.1/">
  <sodipodi:namedview
     id="namedview28"
     pagecolor="#ffffff"
     bordercolor="#000000"
     borderopacity="0.25"
     inkscape:showpageshadow="2"
     inkscape:pageopacity="0.0"
     inkscape:pagecheckerboard="0"
     inkscape:deskcolor="#d1d1d1"
     inkscape:document-units="mm"
     inkscape:zoom="2.8758201"
     inkscape:cx="447.87224"
     inkscape:cy="454.65292"
     inkscape:window-width="1920"
     inkscape:window-height="1009"
     inkscape:window-x="-8"
     inkscape:window-y="-8"
     inkscape:window-maximized="1"
     inkscape:current-layer="Page" />
  <title
     id="title1">FreeCAD SVG Export</title>
  <desc
     id="desc1">Drawing page: Page exported from FreeCAD document: Unnamed</desc>
  <defs
     id="defs1">
    <marker
       style="overflow:visible"
       id="ArrowWideRounded"
       refX="0"
       refY="0"
       orient="auto-start-reverse"
       inkscape:stockid="Wide, rounded arrow"
       markerWidth="0.7"
       markerHeight="0.7"
       viewBox="0 0 1 1"
       inkscape:isstock="true"
       inkscape:collect="always"
       preserveAspectRatio="xMidYMid">
      <path
         style="fill:none;stroke:context-stroke;stroke-width:1;stroke-linecap:round"
         d="M 3,-3 0,0 3,3"
         transform="rotate(180,0.125,0)"
         sodipodi:nodetypes="ccc"
         id="path29" />
    </marker>
  </defs>
  <g
     id="Page"
     inkscape:groupmode="layer"
     inkscape:label="TechDraw">
    <g
       id="Default_Template_A4_Landscape.svg"
       style="stroke: none;"
       transform="scale(10.000000, 10.000000)">
      <metadata
         id="metadata8">
        <rdf:RDF>
          <cc:Work
             rdf:about="">
            <dc:format>image/svg+xml</dc:format>
            <dc:type
               rdf:resource="http://purl.org/dc/dcmitype/StillImage" />
            <dc:title>FreeCAD SVG Export</dc:title>
          </cc:Work>
        </rdf:RDF>
      </metadata>
    </g>
    <g
       fill="none"
       fill-rule="evenodd"
       id="DrawingContent"
       stroke="black"
       stroke-linecap="square"
       stroke-linejoin="bevel"
       stroke-width="1">
      <g
         fill="#f1f3f5"
         fill-opacity="1"
         font-family="Segoe UI"
         font-size="31.75"
         font-style="normal"
         font-weight="400"
         stroke="none"
         transform="matrix(1,0,0,1,1485,1050)"
         id="g1">
        <path
           d="M80.0065,215.915 L-79.9935,215.915 C-85.5163,215.915 -89.9935,211.438 -89.9935,205.915 L-89.9935,85.915 C-89.9935,80.3922 -85.5163,75.915 -79.9935,75.915 L-79.9935,73.915 L-81.0807,73.915 L-87.737,73.915 L-89.9935,73.915 L-87.737,73.915 L-81.0807,73.915 L-79.9935,73.915 L-70.3583,73.915 L-56.1076,73.915 L-39.043,73.915 L-20.0204,73.915 L0.00650467,73.915 L20.0334,73.915 L39.056,73.915 L56.1206,73.915 L70.3713,73.915 L80.0065,73.915 L81.0937,73.915 L87.75,73.915 L90.0065,73.915 L90.0065,-176.085 L89.9935,-176.085 L89.9935,-215.915 L-90.0065,-215.915 L89.9935,-215.915 L89.9935,-176.085 L90.0065,-176.085 L90.0065,73.915 L87.75,73.915 L81.0937,73.915 L80.0065,73.915 L80.0065,75.915 C85.5294,75.915 90.0065,80.3922 90.0065,85.915 L90.0065,205.915 C90.0065,211.438 85.5294,215.915 80.0065,215.915 "
           fill-rule="evenodd"
           vector-effect="non-scaling-stroke"
           id="path1" />
      </g>
      <g
         fill="#f1f3f5"
         fill-opacity="1"
         font-family="Segoe UI"
         font-size="31.75"
         font-style="normal"
         font-weight="400"
         stroke="none"
         transform="matrix(1,0,0,1,1485,1050)"
         id="g2">
        <path
           d="M90.0065,205.915 L90.0065,85.915 L-89.9935,85.915 L-89.9935,205.915 L90.0065,205.915"
           fill-rule="evenodd"
           vector-effect="non-scaling-stroke"
           id="path2" />
      </g>
      <g
         fill="#f1f3f5"
         fill-opacity="1"
         font-family="Segoe UI"
         font-size="31.75"
         font-style="normal"
         font-weight="400"
         stroke="none"
         transform="matrix(1,0,0,1,1485,1050)"
         id="g3">
        <path
           d="M90.0065,85.915 C90.0065,80.3922 85.5294,75.915 80.0065,75.915 L-79.9935,75.915 C-85.5163,75.915 -89.9935,80.3922 -89.9935,85.915 L90.0065,85.915"
           fill-rule="evenodd"
           vector-effect="non-scaling-stroke"
           id="path3" />
      </g>
      <g
         fill="#f1f3f5"
         fill-opacity="1"
         font-family="Segoe UI"
         font-size="31.75"
         font-style="normal"
         font-weight="400"
         stroke="none"
         transform="matrix(1,0,0,1,1485,1050)"
         id="g4">
        <path
           d="M80.0065,215.915 L-79.9935,215.915 C-85.5163,215.915 -89.9935,211.438 -89.9935,205.915 L90.0065,205.915 C90.0065,211.438 85.5294,215.915 80.0065,215.915 "
           fill-rule="evenodd"
           vector-effect="non-scaling-stroke"
           id="path4" />
      </g>
      <g
         fill="#f1f3f5"
         fill-opacity="1"
         font-family="Segoe UI"
         font-size="31.75"
         font-style="normal"
         font-weight="400"
         stroke="none"
         transform="matrix(1,0,0,1,1485,1050)"
         id="g5">
        <path
           d="M80.0065,75.915 L-79.9935,75.915 L-79.9935,73.915 L-70.3583,73.915 L-56.1076,73.915 L-39.043,73.915 L-20.0204,73.915 L0.00650467,73.915 L20.0334,73.915 L39.056,73.915 L56.1206,73.915 L70.3713,73.915 L80.0065,73.915 L80.0065,75.915"
           fill-rule="evenodd"
           vector-effect="non-scaling-stroke"
           id="path5" />
      </g>
      <g
         fill="none"
         font-family="Segoe UI"
         font-size="31.75"
         font-style="normal"
         font-weight="400"
         stroke="#212529"
         stroke-linecap="round"
         stroke-linejoin="bevel"
         stroke-opacity="1"
         stroke-width="3.5"
         transform="matrix(1,0,0,1,1485,1050)"
         id="g6">
        <path
           d="M80.0065,215.915 L-79.9935,215.915"
           fill-rule="evenodd"
           vector-effect="none"
           id="path6" />
      </g>
      <g
         fill="none"
         font-family="Segoe UI"
         font-size="31.75"
         font-style="normal"
         font-weight="400"
         stroke="#212529"
         stroke-linecap="round"
         stroke-linejoin="bevel"
         stroke-opacity="1"
         stroke-width="3.5"
         transform="matrix(1,0,0,1,1485,1050)"
         id="g7">
        <path
           d="M80.0065,215.915 C85.5294,215.915 90.0065,211.438 90.0065,205.915 "
           fill-rule="evenodd"
           vector-effect="none"
           id="path7" />
      </g>
      <g
         fill="none"
         font-family="Segoe UI"
         font-size="31.75"
         font-style="normal"
         font-weight="400"
         stroke="#212529"
         stroke-linecap="round"
         stroke-linejoin="bevel"
         stroke-opacity="1"
         stroke-width="3.5"
         transform="matrix(1,0,0,1,1485,1050)"
         id="g8">
        <path
           d="M90.0065,205.915 L90.0065,85.915"
           fill-rule="evenodd"
           vector-effect="none"
           id="path8" />
      </g>
      <g
         fill="none"
         font-family="Segoe UI"
         font-size="31.75"
         font-style="normal"
         font-weight="400"
         stroke="#212529"
         stroke-linecap="round"
         stroke-linejoin="bevel"
         stroke-opacity="1"
         stroke-width="3.5"
         transform="matrix(1,0,0,1,1485,1050)"
         id="g9">
        <path
           d="M80.0065,75.915 L-79.9935,75.915"
           fill-rule="evenodd"
           vector-effect="none"
           id="path9" />
      </g>
      <g
         fill="none"
         font-family="Segoe UI"
         font-size="31.75"
         font-style="normal"
         font-weight="400"
         stroke="#212529"
         stroke-linecap="round"
         stroke-linejoin="bevel"
         stroke-opacity="1"
         stroke-width="3.5"
         transform="matrix(1,0,0,1,1485,1050)"
         id="g10">
        <path
           d="M90.0065,85.915 C90.0065,80.3922 85.5294,75.915 80.0065,75.915 "
           fill-rule="evenodd"
           vector-effect="none"
           id="path10" />
      </g>
      <g
         fill="none"
         font-family="Segoe UI"
         font-size="31.75"
         font-style="normal"
         font-weight="400"
         stroke="#212529"
         stroke-linecap="round"
         stroke-linejoin="bevel"
         stroke-opacity="1"
         stroke-width="3.5"
         transform="matrix(1,0,0,1,1485,1050)"
         id="g11">
        <path
           d="M80.0065,75.915 L80.0065,73.915"
           fill-rule="evenodd"
           vector-effect="none"
           id="path11" />
      </g>
      <g
         fill="none"
         font-family="Segoe UI"
         font-size="31.75"
         font-style="normal"
         font-weight="400"
         stroke="#212529"
         stroke-linecap="round"
         stroke-linejoin="bevel"
         stroke-opacity="1"
         stroke-width="3.5"
         transform="matrix(1,0,0,1,1485,1050)"
         id="g12">
        <path
           d="M90.0065,73.915 L-89.9935,73.915"
           fill-rule="evenodd"
           vector-effect="none"
           id="path12" />
      </g>
      <g
         fill="none"
         font-family="Segoe UI"
         font-size="31.75"
         font-style="normal"
         font-weight="400"
         stroke="#212529"
         stroke-linecap="round"
         stroke-linejoin="bevel"
         stroke-opacity="1"
         stroke-width="3.5"
         transform="matrix(1,0,0,1,1485,1050)"
         id="g13">
        <path
           d="M90.0065,-176.085 L-89.9935,-176.085"
           fill-rule="evenodd"
           vector-effect="none"
           id="path13" />
      </g>
      <g
         fill="none"
         font-family="Segoe UI"
         font-size="31.75"
         font-style="normal"
         font-weight="400"
         stroke="#212529"
         stroke-linecap="round"
         stroke-linejoin="bevel"
         stroke-opacity="1"
         stroke-width="3.5"
         transform="matrix(1,0,0,1,1485,1050)"
         id="g14">
        <path
           d="M90.0065,73.915 L90.0065,-176.085"
           fill-rule="evenodd"
           vector-effect="none"
           id="path14" />
      </g>
      <g
         fill="none"
         font-family="Segoe UI"
         font-size="31.75"
         font-style="normal"
         font-weight="400"
         stroke="#212529"
         stroke-linecap="round"
         stroke-linejoin="bevel"
         stroke-opacity="1"
         stroke-width="3.5"
         transform="matrix(1,0,0,1,1485,1050)"
         id="g15">
        <path
           d="M89.9935,-215.915 L-90.0065,-215.915"
           fill-rule="evenodd"
           vector-effect="none"
           id="path15" />
      </g>
      <g
         fill="none"
         font-family="Segoe UI"
         font-size="31.75"
         font-style="normal"
         font-weight="400"
         stroke="#212529"
         stroke-linecap="round"
         stroke-linejoin="bevel"
         stroke-opacity="1"
         stroke-width="3.5"
         transform="matrix(1,0,0,1,1485,1050)"
         id="g16">
        <path
           d="M-90.0065,-175.915 L-90.0065,-215.915"
           fill-rule="evenodd"
           vector-effect="none"
           id="path16" />
      </g>
      <g
         fill="none"
         font-family="Segoe UI"
         font-size="31.75"
         font-style="normal"
         font-weight="400"
         stroke="#212529"
         stroke-linecap="round"
         stroke-linejoin="bevel"
         stroke-opacity="1"
         stroke-width="3.5"
         transform="matrix(1,0,0,1,1485,1050)"
         id="g17">
        <path
           d="M-89.9935,205.915 C-89.9935,211.438 -85.5163,215.915 -79.9935,215.915 "
           fill-rule="evenodd"
           vector-effect="none"
           id="path17" />
      </g>
      <g
         fill="none"
         font-family="Segoe UI"
         font-size="31.75"
         font-style="normal"
         font-weight="400"
         stroke="#212529"
         stroke-linecap="round"
         stroke-linejoin="bevel"
         stroke-opacity="1"
         stroke-width="3.5"
         transform="matrix(1,0,0,1,1485,1050)"
         id="g18">
        <path
           d="M-89.9935,205.915 L-89.9935,85.915"
           fill-rule="evenodd"
           vector-effect="none"
           id="path18" />
      </g>
      <g
         fill="none"
         font-family="Segoe UI"
         font-size="31.75"
         font-style="normal"
         font-weight="400"
         stroke="#212529"
         stroke-linecap="round"
         stroke-linejoin="bevel"
         stroke-opacity="1"
         stroke-width="3.5"
         transform="matrix(1,0,0,1,1485,1050)"
         id="g19">
        <path
           d="M-89.9935,85.915 C-89.9935,80.3922 -85.5163,75.915 -79.9935,75.915 "
           fill-rule="evenodd"
           vector-effect="none"
           id="path19" />
      </g>
      <g
         fill="none"
         font-family="Segoe UI"
         font-size="31.75"
         font-style="normal"
         font-weight="400"
         stroke="#212529"
         stroke-linecap="round"
         stroke-linejoin="bevel"
         stroke-opacity="1"
         stroke-width="3.5"
         transform="matrix(1,0,0,1,1485,1050)"
         id="g20">
        <path
           d="M-79.9935,75.915 L-79.9935,73.915"
           fill-rule="evenodd"
           vector-effect="none"
           id="path20" />
      </g>
      <g
         fill="none"
         font-family="Segoe UI"
         font-size="31.75"
         font-style="normal"
         font-weight="400"
         stroke="#212529"
         stroke-linecap="round"
         stroke-linejoin="bevel"
         stroke-opacity="1"
         stroke-width="3.5"
         transform="matrix(1,0,0,1,1485,1050)"
         id="g21">
        <path
           d="M-89.9935,73.915 L-89.9935,-175.915"
           fill-rule="evenodd"
           vector-effect="none"
           id="path21" />
      </g>
      <g
         fill="none"
         font-family="Segoe UI"
         font-size="31.75"
         font-style="normal"
         font-weight="400"
         stroke="#212529"
         stroke-linecap="round"
         stroke-linejoin="bevel"
         stroke-opacity="1"
         stroke-width="3.5"
         transform="matrix(1,0,0,1,1485,1050)"
         id="g22">
        <path
           d="M89.9935,-176.085 L89.9935,-215.915"
           fill-rule="evenodd"
           vector-effect="none"
           id="path22" />
      </g>
      <g
         fill="none"
         font-family="Segoe UI"
         font-size="31.75"
         font-style="normal"
         font-weight="400"
         stroke="#212529"
         stroke-linecap="round"
         stroke-linejoin="bevel"
         stroke-opacity="1"
         stroke-width="3.5"
         transform="matrix(1,0,0,1,1485,1050)"
         id="g23">
        <path
           d="M90.0065,205.915 L-89.9935,205.915"
           fill-rule="evenodd"
           vector-effect="none"
           id="path23" />
      </g>
      <g
         fill="none"
         font-family="Segoe UI"
         font-size="31.75"
         font-style="normal"
         font-weight="400"
         stroke="#212529"
         stroke-linecap="round"
         stroke-linejoin="bevel"
         stroke-opacity="1"
         stroke-width="3.5"
         transform="matrix(1,0,0,1,1485,1050)"
         id="g24">
        <path
           d="M90.0065,85.915 L-89.9935,85.915"
           fill-rule="evenodd"
           vector-effect="none"
           id="path24" />
      </g>
      <g
         id="g3-8"
         transform="matrix(3.0106226,0,0,3.0106226,843.38357,1050.2305)">
        <path
           stroke="#000000"
           stroke-width="2"
           fill="none"
           d="m 55.160307,94.213656 a 70,100 71.212598 0 0 74.622253,-78.1991"
           id="path1-8" />
        <path
           stroke="#000000"
           stroke-width="2"
           fill="none"
           d="M 55.160307,94.213656 A 70,100 71.212598 0 1 161.98832,110.68657"
           id="path2-2" />
        <path
           stroke="#000000"
           stroke-width="2"
           fill="none"
           d="M 127.64771,27.844394 A 65,30 71.212598 0 1 153.0822,102.61162"
           id="path3-4" />
        <path
           id="pupil"
           stroke="#000000"
           stroke-width="2"
           fill="#000000"
           d="m 143.79103,56.669092 a 7.0000005,9.0000008 71.212598 0 0 4.50881,13.254081" />
        <g
           id="eyelashs"
           transform="rotate(-18.787402,15.091986,-39.381944)">
          <path
             id="eylash1"
             stroke="#000000"
             stroke-width="1"
             fill="#000000"
             d="m 105,51.857 6,7" />
          <path
             id="eylash2"
             stroke="#000000"
             stroke-width="1"
             fill="#000000"
             d="m 104,53.882 6,7" />
          <path
             id="eylash3"
             stroke="#000000"
             stroke-width="1"
             fill="#000000"
             d="m 103,55.729 6,7" />
          <path
             id="eylash4"
             stroke="#000000"
             stroke-width="1"
             fill="#000000"
             d="m 102,57.434 6,7" />
        </g>
        <path
           style="fill:none;stroke:#000000;stroke-width:2.65726;stroke-linecap:round;stroke-linejoin:round;stroke-dasharray:2.65726, 5.31452;stroke-dashoffset:0;marker-end:url(#ArrowWideRounded)"
           d="M 151.36243,60.959577 202.09098,37.734446"
           id="path28"
           sodipodi:nodetypes="cc" />
      </g>
    </g>
    <text
       xml:space="preserve"
       style="font-size:31.75px;font-family:Consolas;-inkscape-font-specification:Consolas;writing-mode:lr-tb;direction:ltr;fill:#000000;fill-opacity:1;stroke:none;stroke-width:7.99999;stroke-linecap:round;stroke-linejoin:round;stroke-dasharray:7.99999, 16;stroke-dashoffset:0"
       x="1314.7192"
       y="1305.5188"
       id="text29"><tspan
         sodipodi:role="line"
         id="tspan29"
         style="fill:#000000;fill-opacity:1;stroke:none;stroke-width:8"
         x="1314.7192"
         y="1305.5188">Проверь перфорацию</tspan></text>
  </g>
</svg>
